<svg width="42" height="54" viewBox="0 0 42 54" fill="none" xmlns="http://www.w3.org/2000/svg">
<path d="M21 0.54541C15.4325 0.551978 10.0949 2.76658 6.15803 6.70342C2.22119 10.6403 0.00659051 15.9779 2.23418e-05 21.5454C-0.0066459 26.0952 1.47953 30.5215 4.23056 34.1454C4.23056 34.1454 4.80329 34.8995 4.89684 35.0083L21 53.9999L37.1108 34.9987C37.1948 34.8976 37.7694 34.1454 37.7694 34.1454L37.7713 34.1396C40.521 30.5174 42.0065 26.0931 42 21.5454C41.9934 15.9779 39.7788 10.6403 35.842 6.70342C31.9051 2.76658 26.5675 0.551978 21 0.54541ZM21 29.1817C19.4897 29.1817 18.0133 28.7339 16.7575 27.8948C15.5017 27.0557 14.5229 25.8631 13.9449 24.4677C13.367 23.0723 13.2157 21.5369 13.5104 20.0556C13.805 18.5743 14.5323 17.2136 15.6003 16.1457C16.6682 15.0777 18.0289 14.3504 19.5102 14.0558C20.9915 13.7611 22.5269 13.9123 23.9223 14.4903C25.3177 15.0683 26.5103 16.0471 27.3494 17.3029C28.1885 18.5586 28.6364 20.0351 28.6364 21.5454C28.6338 23.5699 27.8285 25.5108 26.3969 26.9423C24.9654 28.3739 23.0245 29.1792 21 29.1817Z" fill="#EA3434"/>
</svg>
