<svg width="80" height="55" viewBox="0 0 80 55" fill="none" xmlns="http://www.w3.org/2000/svg">
<path d="M0 0H76C78.2091 0 80 1.79086 80 4V51C80 53.2091 78.2091 55 76 55H0V0Z" fill="#17B3A6"/>
<path d="M37.8114 15C35.8709 15 33.9739 15.5759 32.3605 16.6548C30.747 17.7336 29.4895 19.2671 28.7469 21.0612C28.0043 22.8554 27.81 24.8296 28.1885 26.7342C28.5671 28.6389 29.5015 30.3884 30.8737 31.7616C32.2458 33.1347 33.9941 34.0699 35.8973 34.4487C37.8005 34.8276 39.7732 34.6332 41.566 33.89C43.3588 33.1468 44.8911 31.8884 45.9692 30.2737C47.0473 28.659 47.6227 26.7607 47.6227 24.8187C47.6226 22.2147 46.5888 19.7173 44.7489 17.876C42.9089 16.0347 40.4135 15.0002 37.8114 15Z" stroke="white" stroke-width="2" stroke-miterlimit="10"/>
<path d="M45.1289 32.1445L51.9811 39.0018" stroke="white" stroke-width="2" stroke-miterlimit="10" stroke-linecap="round"/>
</svg>
