<svg width="19" height="19" viewBox="0 0 19 19" fill="none" xmlns="http://www.w3.org/2000/svg">
<path d="M8.84678 2.76685H3.41439C2.77406 2.76685 2.15995 3.02141 1.70716 3.47453C1.25437 3.92766 1 4.54223 1 5.18304V16.0559C1 16.6968 1.25437 17.3113 1.70716 17.7645C2.15995 18.2176 2.77406 18.4721 3.41439 18.4721H15.4864C16.1267 18.4721 16.7408 18.2176 17.1936 17.7645C17.6464 17.3113 17.9008 16.6968 17.9008 16.0559V10.6195" stroke="white" stroke-linecap="round" stroke-linejoin="round"/>
<path d="M15.4857 3.97496L16.6362 5.18306M17.9001 1.5189C18.2219 1.85192 18.4001 2.29814 18.3963 2.7614C18.3924 3.22466 18.2069 3.66787 17.8796 3.9955L9.44972 12.4317L5.82812 13.6398L7.03532 10.0155L15.47 1.50319C15.7665 1.20416 16.1633 1.02579 16.5837 1.00259C17.004 0.979379 17.418 1.11298 17.7456 1.37755L17.9001 1.5189Z" stroke="white" stroke-linecap="round" stroke-linejoin="round"/>
</svg>
