<svg width="1126" height="464" viewBox="0 0 1126 464" fill="none" xmlns="http://www.w3.org/2000/svg">
<line x1="0.5" y1="1.74241e-08" x2="0.499975" y2="464" stroke="#C1C1C1"/>
<line x1="43.5" y1="1.74241e-08" x2="43.5" y2="464" stroke="#C1C1C1"/>
<line x1="84.5" y1="1.74241e-08" x2="84.5" y2="464" stroke="#C1C1C1"/>
<line x1="124.5" y1="1.74241e-08" x2="124.5" y2="464" stroke="#C1C1C1"/>
<line x1="160.5" y1="1.74241e-08" x2="160.5" y2="464" stroke="#C1C1C1"/>
<line x1="199.5" y1="1.74241e-08" x2="199.5" y2="464" stroke="#C1C1C1"/>
<line x1="243.5" y1="1.74241e-08" x2="243.5" y2="464" stroke="#C1C1C1"/>
<line x1="291.5" y1="1.74241e-08" x2="291.5" y2="464" stroke="#C1C1C1"/>
<line x1="331.5" y1="1.74241e-08" x2="331.5" y2="464" stroke="#C1C1C1"/>
<line x1="384.5" y1="1.74241e-08" x2="384.5" y2="464" stroke="#C1C1C1"/>
<line x1="425.5" y1="1.74241e-08" x2="425.5" y2="464" stroke="#C1C1C1"/>
<line x1="487.5" y1="1.74241e-08" x2="487.5" y2="464" stroke="#C1C1C1"/>
<line x1="533.5" y1="1.74241e-08" x2="533.5" y2="464" stroke="#C1C1C1"/>
<line x1="574.5" y1="1.74241e-08" x2="574.5" y2="464" stroke="#C1C1C1"/>
<line x1="615.5" y1="1.74241e-08" x2="615.5" y2="464" stroke="#C1C1C1"/>
<line x1="656.5" y1="1.74241e-08" x2="656.5" y2="464" stroke="#C1C1C1"/>
<line x1="697.5" y1="1.74241e-08" x2="697.5" y2="464" stroke="#C1C1C1"/>
<line x1="737.5" y1="1.74241e-08" x2="737.5" y2="464" stroke="#C1C1C1"/>
<line x1="778.5" y1="1.74241e-08" x2="778.5" y2="464" stroke="#C1C1C1"/>
<line x1="819.5" y1="1.74241e-08" x2="819.5" y2="464" stroke="#C1C1C1"/>
<line x1="867.5" y1="-2.18557e-08" x2="867.5" y2="464" stroke="#C1C1C1"/>
<line x1="949.5" y1="-2.18557e-08" x2="949.5" y2="464" stroke="#C1C1C1"/>
<line x1="1026.5" y1="1.74241e-08" x2="1026.5" y2="464" stroke="#C1C1C1"/>
<line x1="1125.5" y1="1.74241e-08" x2="1125.5" y2="464" stroke="#C1C1C1"/>
</svg>
