<svg width="23" height="28" viewBox="0 0 23 28" fill="none" xmlns="http://www.w3.org/2000/svg">
<path fill-rule="evenodd" clip-rule="evenodd" d="M5.07822 11.8295C5.07822 10.1263 5.75479 8.49292 6.95911 7.28861C8.16343 6.08429 9.79683 5.40771 11.5 5.40771C13.2031 5.40771 14.8365 6.08429 16.0409 7.28861C17.2452 8.49292 17.9218 10.1263 17.9218 11.8295C17.9218 13.5326 17.2452 15.166 16.0409 16.3704C14.8365 17.5747 13.2031 18.2513 11.5 18.2513C9.79683 18.2513 8.16343 17.5747 6.95911 16.3704C5.75479 15.166 5.07822 13.5326 5.07822 11.8295ZM11.5 7.43564C10.3347 7.43564 9.21708 7.89856 8.39307 8.72257C7.56907 9.54658 7.10614 10.6642 7.10614 11.8295C7.10614 12.9948 7.56907 14.1124 8.39307 14.9364C9.21708 15.7604 10.3347 16.2233 11.5 16.2233C12.6653 16.2233 13.7829 15.7604 14.6069 14.9364C15.4309 14.1124 15.8938 12.9948 15.8938 11.8295C15.8938 10.6642 15.4309 9.54658 14.6069 8.72257C13.7829 7.89856 12.6653 7.43564 11.5 7.43564Z" fill="#FF5C5C"/>
<path fill-rule="evenodd" clip-rule="evenodd" d="M0.0408773 10.2843C0.271961 7.48143 1.54861 4.86796 3.61735 2.96277C5.68609 1.05757 8.39563 -8.56539e-06 11.208 0H11.792C14.6044 -8.56539e-06 17.314 1.05757 19.3827 2.96277C21.4514 4.86796 22.7281 7.48143 22.9592 10.2843C23.2163 13.4063 22.2518 16.5063 20.2688 18.9314L13.7889 26.8552C13.5116 27.1943 13.1624 27.4675 12.7665 27.6552C12.3707 27.8428 11.9381 27.9402 11.5 27.9402C11.062 27.9402 10.6294 27.8428 10.2335 27.6552C9.83768 27.4675 9.48848 27.1943 9.21117 26.8552L2.73126 18.9314C0.748105 16.5064 -0.216419 13.4064 0.0408773 10.2843ZM11.208 2.02793C8.90493 2.02828 6.68617 2.89457 4.99216 4.45484C3.29814 6.01512 2.25272 8.15531 2.0634 10.4506C1.84925 13.0488 2.65188 15.6288 4.30223 17.647L10.7821 25.5722C10.8692 25.6788 10.979 25.7647 11.1034 25.8237C11.2277 25.8827 11.3637 25.9133 11.5014 25.9133C11.639 25.9133 11.775 25.8827 11.8994 25.8237C12.0238 25.7647 12.1335 25.6788 12.2206 25.5722L18.7005 17.647C20.3499 15.6284 21.1515 13.0485 20.9366 10.4506C20.7473 8.15507 19.7017 6.0147 18.0074 4.45439C16.3131 2.89408 14.094 2.02794 11.7907 2.02793H11.2066H11.208Z" fill="#FF5C5C"/>
</svg>
