<svg width="23" height="24" viewBox="0 0 23 24" fill="none" xmlns="http://www.w3.org/2000/svg">
<path d="M19.5 11.6367C19.9688 11.957 20.3867 12.3203 20.7539 12.7266C21.1211 13.1328 21.4375 13.5781 21.7031 14.0625C21.9687 14.5469 22.1641 15.0586 22.2891 15.5977C22.4141 16.1367 22.4844 16.6875 22.5 17.25C22.5 18.1797 22.3242 19.0547 21.9727 19.875C21.6211 20.6953 21.1367 21.4102 20.5195 22.0195C19.9023 22.6289 19.1875 23.1094 18.375 23.4609C17.5625 23.8125 16.6875 23.9922 15.75 24C15.0391 24 14.3516 23.8945 13.6875 23.6836C13.0234 23.4727 12.4141 23.168 11.8594 22.7695C11.3047 22.3711 10.8125 21.8945 10.3828 21.3398C9.95312 20.7852 9.62109 20.1719 9.38672 19.5H0V1.5H3V0H4.5V1.5H15V0H16.5V1.5H19.5V11.6367ZM1.5 3V6H18V3H16.5V4.5H15V3H4.5V4.5H3V3H1.5ZM9.03516 18C9.01172 17.7578 9 17.5078 9 17.25C9 16.5781 9.09375 15.9258 9.28125 15.293C9.46875 14.6602 9.75391 14.0625 10.1367 13.5H9V12H10.5V13.0078C10.8203 12.6094 11.1758 12.2578 11.5664 11.9531C11.957 11.6484 12.3789 11.3867 12.832 11.168C13.2852 10.9492 13.7578 10.7852 14.25 10.6758C14.7422 10.5664 15.2422 10.5078 15.75 10.5C16.5312 10.5 17.2813 10.6289 18 10.8867V7.5H1.5V18H9.03516ZM15.75 22.5C16.4766 22.5 17.1562 22.3633 17.7891 22.0898C18.4219 21.8164 18.9766 21.4414 19.4531 20.9648C19.9297 20.4883 20.3047 19.9336 20.5781 19.3008C20.8516 18.668 20.9922 17.9844 21 17.25C21 16.5234 20.8633 15.8438 20.5898 15.2109C20.3164 14.5781 19.9414 14.0234 19.4648 13.5469C18.9883 13.0703 18.4336 12.6953 17.8008 12.4219C17.168 12.1484 16.4844 12.0078 15.75 12C15.0234 12 14.3438 12.1367 13.7109 12.4102C13.0781 12.6836 12.5234 13.0586 12.0469 13.5352C11.5703 14.0117 11.1953 14.5664 10.9219 15.1992C10.6484 15.832 10.5078 16.5156 10.5 17.25C10.5 17.9766 10.6367 18.6562 10.9102 19.2891C11.1836 19.9219 11.5586 20.4766 12.0352 20.9531C12.5117 21.4297 13.0664 21.8047 13.6992 22.0781C14.332 22.3516 15.0156 22.4922 15.75 22.5ZM16.5 16.5H18.75V18H15V13.5H16.5V16.5ZM3 12H4.5V13.5H3V12ZM6 12H7.5V13.5H6V12ZM6 9H7.5V10.5H6V9ZM3 15H4.5V16.5H3V15ZM6 15H7.5V16.5H6V15ZM10.5 10.5H9V9H10.5V10.5ZM13.5 10.5H12V9H13.5V10.5ZM16.5 10.5H15V9H16.5V10.5Z" fill="#268D61"/>
</svg>
