<svg width="159" height="233" viewBox="0 0 159 233" fill="none" xmlns="http://www.w3.org/2000/svg">
<path d="M101.265 73.9436C98.1177 73.9436 95.1365 72.1217 93.7287 69.0577C91.9068 64.917 93.8115 60.0311 97.9521 58.2092C108.386 53.5718 115.094 46.864 117.744 38.2515C119.815 31.6265 118.738 26.1609 118.738 26.0781V26.1609L134.39 19.95C134.555 20.8609 136.625 31.7921 133.727 42.0608C130.994 51.5843 123.79 64.6686 104.577 73.1983C103.418 73.778 102.341 73.9436 101.265 73.9436Z" fill="#764C49"/>
<path d="M115.939 22.0449L11.4964 83.6407L6.44482 86.5391C1.14483 89.6032 -1.25672 96.0626 0.647961 101.859L5.03701 115.109C6.69326 119.912 12.3245 122.066 16.7135 119.498C20.026 117.594 21.5167 113.619 20.2745 109.975L15.3057 95.0688C14.6432 92.9985 15.4714 90.7626 17.2932 89.686L115.939 31.5104V22.0449Z" fill="#9B9B9B"/>
<path d="M158.485 2.0623C158.216 1.59106 157.857 1.17801 157.427 0.847265C156.997 0.516517 156.506 0.274699 155.982 0.13593C155.457 -0.00283786 154.911 -0.0357751 154.374 0.0390408C153.837 0.113857 153.32 0.294926 152.853 0.571679L116.002 21.9373L119.48 29.3904L156.994 7.61072C157.912 7.0584 158.58 6.17175 158.858 5.1371C159.136 4.10244 159.002 3.00031 158.485 2.0623Z" fill="#321B41"/>
<path d="M113.364 112.368L88.7691 120.65L64.1739 112.368V89.0152C64.1739 85.8684 63.263 82.8043 61.5239 80.0715C54.1536 68.6434 57.4661 53.4059 68.8942 46.0356C80.3223 38.6653 96.3051 51.7497 103.675 63.1778C113.364 78.084 113.364 112.368 113.364 112.368Z" fill="#0092E7"/>
<path d="M132.569 18.0451C132.28 18.0464 131.992 18.0016 131.717 17.9126C131.674 18.3089 131.542 18.6905 131.331 19.0289C131.12 19.3673 130.836 19.6537 130.499 19.8669C130.138 20.0572 129.741 20.1675 129.334 20.1904C128.926 20.2132 128.519 20.1481 128.139 19.9994C128.056 20.5755 127.785 21.108 127.369 21.5149C127.823 21.7743 128.2 22.1494 128.461 22.602C128.723 23.0545 128.86 23.5683 128.858 24.091C128.856 24.6138 128.716 25.1267 128.452 25.5775C128.187 26.0284 127.808 26.4011 127.352 26.6575L123.709 28.645C123.212 28.8107 122.715 28.9763 122.301 28.9763C121.307 28.9763 120.23 28.3966 119.734 27.4857C119.403 26.8613 119.304 26.1398 119.456 25.4497C119.608 24.7596 120 24.1458 120.562 23.7177C120.281 23.5128 120.053 23.2429 119.899 22.931L118.16 19.8669C117.843 19.2797 117.761 18.5939 117.93 17.9482C118.099 17.3026 118.507 16.7452 119.071 16.3888C119.43 16.1943 119.83 16.0862 120.238 16.0733C120.646 16.0603 121.052 16.1429 121.423 16.3143C121.471 15.9259 121.604 15.553 121.813 15.2223C122.022 14.8915 122.302 14.6112 122.632 14.4013C122.991 14.2068 123.391 14.0987 123.799 14.0858C124.207 14.0729 124.613 14.1554 124.984 14.3268C125.032 13.9385 125.165 13.5655 125.374 13.2348C125.583 12.904 125.863 12.6237 126.193 12.4138C126.628 12.1781 127.121 12.0701 127.615 12.1023C128.108 12.1346 128.583 12.3057 128.984 12.596C129.175 12.0079 129.564 11.5044 130.085 11.1716C131.327 10.5091 132.818 10.9232 133.563 12.0826L134.805 14.2357C135.468 15.4779 135.054 16.9685 133.894 17.7138L133.687 17.7883C133.273 17.9208 132.926 18.0451 132.569 18.0451Z" fill="#764C49"/>
<path d="M64.1671 112.368V170.999C64.1671 175.802 63.8359 176.631 63.2562 177.293L37.75 204.455C38.0812 204.787 50.8343 214.31 51.9937 215.469L79.4046 191.454C81.8062 188.97 85.2015 185.491 85.4499 180.109L86.6921 136.549C86.6921 132.243 89.7561 131.415 90.9983 134.065C91.8265 135.804 94.3108 232.446 94.3108 232.446H111.039L113.275 112.451H64.1671V112.368Z" fill="#9B9B9B"/>
<path d="M51.9128 223.999L51.9957 215.47L37.7519 204.538C35.8473 206.691 34.8535 209.507 34.8535 212.323V227.809C34.8535 230.376 36.9238 232.529 39.5738 232.529H55.805C56.3934 232.52 56.9636 232.324 57.4324 231.968C57.9012 231.613 58.2439 231.116 58.4104 230.552C58.5769 229.988 58.5586 229.385 58.358 228.832C58.1574 228.278 57.7852 227.804 57.2957 227.477L51.9128 223.999ZM93.7331 219.61H111.372L127.024 228.223C127.686 228.637 128.1 229.382 128.1 230.21C128.1 231.452 127.106 232.529 125.781 232.529L94.3956 232.446L93.7331 219.61Z" fill="#321B41"/>
<path d="M122.376 29.556C122.045 25.9951 120.14 22.5169 119.809 21.9373C120.637 21.4404 120.885 20.3638 120.389 19.5357C120.057 19.0388 119.809 18.5419 119.809 18.5419C119.631 18.2301 119.394 17.9567 119.109 17.7376C118.825 17.5184 118.5 17.358 118.154 17.2655C117.807 17.173 117.445 17.1504 117.09 17.1989C116.734 17.2475 116.392 17.3662 116.082 17.5482C115.42 17.8795 115.006 18.4591 114.84 19.1216C114.404 18.7926 113.879 18.6011 113.333 18.5716C112.788 18.5421 112.245 18.6759 111.776 18.956C111.031 19.3701 110.534 20.1982 110.451 20.9435C110.055 20.7655 109.621 20.6875 109.188 20.7164C108.755 20.7453 108.336 20.8801 107.967 21.1091C107.221 21.5232 106.725 22.3513 106.642 23.0966C106.215 22.9126 105.748 22.8389 105.285 22.8823C104.822 22.9257 104.377 23.0848 103.992 23.3451C102.832 24.1732 102.584 25.8294 103.246 27.0716L103.909 28.231C104.654 29.4732 105.896 31.3779 105.648 33.945C105.317 36.0153 104.571 38.7482 102.75 41.7294C98.0293 49.3481 88.1746 54.3997 74.2622 56.3044C69.8731 57.0497 66.8091 61.1903 67.3887 65.6622C67.9684 69.8028 71.4465 72.7012 75.5044 72.7012C75.9184 72.7012 76.2497 72.7012 76.6637 72.6184C101.342 69.1403 112.521 58.0434 117.49 49.2653C123.204 39.4935 122.459 30.5497 122.376 29.556Z" fill="#966661"/>
<path d="M83.0527 54.5654C78.3324 55.642 73.198 56.6357 67.2356 57.0498C62.7637 57.381 59.2856 61.6045 59.534 66.5732C59.7824 71.0451 63.0121 74.5232 67.0699 74.8544H68.2293C75.5996 74.2748 81.8933 72.9498 87.1933 71.0451C85.6199 64.917 84.0465 58.6232 83.0527 54.5654Z" fill="#3BC6F6"/>
<path fill-rule="evenodd" clip-rule="evenodd" d="M67.9671 18.3845L75.1387 14.2439L81.7223 25.6389L74.5507 29.7795L67.9671 18.3845ZM41.6328 33.5971L48.8044 29.4565L55.3879 40.8598L48.2164 45.0004L41.6328 33.5971Z" fill="#2D242D"/>
<path d="M84.1308 24.5044C84.1308 26.0418 83.52 27.5163 82.4329 28.6034C81.3458 29.6905 79.8713 30.3012 78.3339 30.3012C76.7965 30.3012 75.322 29.6905 74.2349 28.6034C73.1478 27.5163 72.537 26.0418 72.537 24.5044C72.537 22.967 73.1478 21.4925 74.2349 20.4054C75.322 19.3183 76.7965 18.7075 78.3339 18.7075C79.8713 18.7075 81.3458 19.3183 82.4329 20.4054C83.52 21.4925 84.1308 22.967 84.1308 24.5044ZM54.7324 41.4809C54.7324 43.0183 54.1217 44.4928 53.0345 45.5799C51.9474 46.667 50.473 47.2778 48.9355 47.2778C47.3981 47.2778 45.9237 46.667 44.8365 45.5799C43.7494 44.4928 43.1387 43.0183 43.1387 41.4809C43.1387 39.9435 43.7494 38.469 44.8365 37.3819C45.9237 36.2948 47.3981 35.684 48.9355 35.684C50.473 35.684 51.9474 36.2948 53.0345 37.3819C54.1217 38.469 54.7324 39.9435 54.7324 41.4809Z" fill="#8B5C56"/>
<path d="M54.1618 8.28136L47.454 12.1735C39.8352 16.5626 37.8477 26.1688 43.2305 33.5391L54.4102 50.2672C58.6336 55.7328 66.1695 57.2234 72.132 53.7453L75.0305 52.0891L77.9289 50.4328C83.8914 46.9547 86.3758 39.6672 83.8086 33.2907L74.782 15.3204C71.4695 7.20479 61.7805 3.8923 54.1618 8.28136Z" fill="#966661"/>
<path d="M65.7319 3.38751C61.0944 1.73127 56.2085 2.80783 51.9022 5.2922L48.7554 7.19688L45.6085 9.01875C41.3023 11.5031 37.907 15.2297 36.996 20.0328C36.3335 23.7593 37.8242 28.9765 41.6335 33.614L41.7992 33.4484C41.882 33.2828 41.882 33.1171 41.9648 33.0343C43.9523 29.225 46.9335 25.8297 50.246 23.0968C51.9851 21.689 53.8069 20.364 55.7116 19.2047C57.6163 18.2109 59.6038 17.3 61.6741 16.4719C65.7319 14.9812 70.121 14.0703 74.4272 14.3187C74.5928 14.3187 74.7585 14.3187 74.9241 14.4016L75.1725 14.3187C73.1022 8.60469 69.2928 4.71251 65.7319 3.38751Z" fill="#17B3A6"/>
<path d="M45.0281 26.4091C43.5375 28.5623 42.4609 30.881 41.6328 33.6138L43.7859 34.4419C45.3594 35.0216 47.1812 34.4419 48.0922 32.9513C49.6656 30.3841 52.7297 26.3263 58.1125 23.1795C63.4953 20.0326 68.5468 19.4529 71.5281 19.3701C73.2671 19.3701 74.6749 18.0451 74.9234 16.3888L75.2546 14.1529C72.3562 13.5732 69.789 13.3248 67.2218 13.5732C58.2781 14.4013 50.1625 19.0388 45.0281 26.4091Z" fill="#3BC6F6"/>
<path d="M69.0454 42.3094C67.3891 43.2203 65.6501 43.7172 63.9938 43.8C63.4141 43.8 63.2485 44.6281 63.7454 44.8766C65.7329 45.8703 68.3001 45.8703 70.3704 44.6281C72.5235 43.3859 73.7657 41.2328 73.8485 38.9141C73.8485 38.3344 73.1032 38.0859 72.8547 38.5828C71.9438 40.0734 70.6188 41.3156 69.0454 42.3094Z" fill="#990838"/>
<path d="M62.2677 32.7031L63.6755 38.7484C63.9239 39.9905 65.3317 40.5702 66.4911 39.9905L68.727 38.5827C69.8864 37.9202 70.052 36.4296 69.0583 35.6015L64.5036 31.3781C63.5098 30.3843 61.9364 31.3781 62.2677 32.7031Z" fill="#75443E"/>
<path d="M74.6043 25.4151C73.8284 24.6307 72.8153 24.1243 71.7222 23.9746C70.6292 23.8248 69.5172 24.0401 68.559 24.587C66.4887 25.7463 65.6605 28.2307 66.4059 30.4666C66.5715 30.9635 67.1512 31.1291 67.5652 30.8807L74.3558 26.9057C74.9355 26.6573 75.0183 25.8291 74.6043 25.4151ZM51.6653 38.6651C51.0028 36.5947 51.9137 34.1932 53.9012 33.0338C55.9715 31.8744 58.6215 32.2885 60.1949 34.0276C60.5262 34.4416 60.3606 35.0213 59.9465 35.2697L53.0731 39.2447C52.5762 39.576 51.8309 39.2447 51.6653 38.6651Z" fill="white"/>
<path d="M72.7712 26.9063C72.5652 26.5468 72.2902 26.2315 71.962 25.9786C71.6339 25.7256 71.259 25.5399 70.8589 25.4322C70.4588 25.3245 70.0413 25.2968 69.6305 25.3508C69.2197 25.4049 68.8236 25.5395 68.4649 25.747C66.8915 26.6579 66.3946 28.5626 67.3055 30.0532C67.3884 30.3016 67.554 30.5501 67.8024 30.7157L73.1024 27.6516C73.0272 27.389 72.9157 27.1382 72.7712 26.9063ZM53.8071 37.8376C52.979 36.3469 53.4759 34.3594 54.9665 33.5313C55.3285 33.3106 55.7314 33.1654 56.151 33.1043C56.5706 33.0432 56.9981 33.0676 57.4081 33.1758C57.818 33.2841 58.2018 33.4741 58.5365 33.7344C58.8711 33.9948 59.1497 34.32 59.3556 34.6907C59.397 34.8149 59.4632 34.9391 59.5212 35.0633C59.5874 35.1876 59.6454 35.3118 59.6868 35.436L54.3868 38.5001C54.1516 38.3198 53.9546 38.0946 53.8071 37.8376Z" fill="#7D4533"/>
<path d="M69.129 26.9058C68.3009 27.4027 67.9696 28.5621 68.4665 29.3902C68.6321 29.6386 68.7977 29.8871 69.0462 30.0527L71.8618 28.3964C71.8618 28.148 71.779 27.8168 71.6134 27.5683C71.1165 26.7402 69.9571 26.4089 69.129 26.9058ZM55.7134 34.6902C56.6243 34.1933 57.7009 34.5246 58.1978 35.3527C58.2806 35.6011 58.3634 35.8495 58.3634 36.2636L55.6306 37.837C55.3954 37.6568 55.1983 37.4316 55.0509 37.1745C54.8168 36.7555 54.7551 36.2619 54.8788 35.7981C55.0024 35.3344 55.3018 34.937 55.7134 34.6902Z" fill="black"/>
<path d="M69.1304 27.8995C69.1304 28.0533 69.0694 28.2007 68.9607 28.3094C68.8519 28.4181 68.7045 28.4792 68.5507 28.4792C68.397 28.4792 68.2496 28.4181 68.1408 28.3094C68.0321 28.2007 67.9711 28.0533 67.9711 27.8995C67.9711 27.7458 68.0321 27.5983 68.1408 27.4896C68.2496 27.3809 68.397 27.3198 68.5507 27.3198C68.7045 27.3198 68.8519 27.3809 68.9607 27.4896C69.0694 27.5983 69.1304 27.7458 69.1304 27.8995ZM55.632 35.6839C55.632 35.8376 55.571 35.9851 55.4622 36.0938C55.3535 36.2025 55.2061 36.2636 55.0523 36.2636C54.8986 36.2636 54.7512 36.2025 54.6424 36.0938C54.5337 35.9851 54.4727 35.8376 54.4727 35.6839C54.4727 35.5301 54.5337 35.3827 54.6424 35.274C54.7512 35.1653 54.8986 35.1042 55.0523 35.1042C55.2061 35.1042 55.3535 35.1653 55.4622 35.274C55.571 35.3827 55.632 35.5301 55.632 35.6839Z" fill="white"/>
<path d="M71.0048 20.1815C71.1261 20.1984 71.2428 20.239 71.3484 20.3009C71.454 20.3629 71.5463 20.4451 71.6201 20.5427C71.694 20.6404 71.7478 20.7517 71.7787 20.8701C71.8095 20.9886 71.8167 21.112 71.7998 21.2333C71.783 21.3545 71.7424 21.4713 71.6804 21.5768C71.6184 21.6824 71.5363 21.7747 71.4386 21.8486C71.341 21.9224 71.2297 21.9763 71.1112 22.0071C70.9928 22.0379 70.8694 22.0451 70.7481 22.0282H70.657C70.1592 21.9987 69.6596 22.0209 69.1664 22.0945C67.8863 22.2867 66.6756 22.7995 65.6469 23.5851C65.5495 23.6596 65.4385 23.7142 65.3201 23.7458C65.2016 23.7774 65.0781 23.7853 64.9566 23.7692C64.8351 23.753 64.718 23.7131 64.6119 23.6517C64.5059 23.5903 64.4129 23.5085 64.3384 23.4112C64.2639 23.3139 64.2093 23.2028 64.1778 23.0844C64.1462 22.966 64.1383 22.8425 64.1544 22.721C64.1706 22.5995 64.2105 22.4824 64.2719 22.3763C64.3333 22.2702 64.415 22.1773 64.5123 22.1028C66.3156 20.7277 68.55 20.0407 70.8144 20.165L70.9469 20.1815H71.0048ZM55.1131 28.8603C55.1837 29.0942 55.1599 29.3464 55.0469 29.563C54.934 29.7797 54.7408 29.9436 54.5086 30.0196C52.5874 30.6407 51.2458 31.8415 50.7324 33.5474C50.697 33.6644 50.639 33.7732 50.5616 33.8676C50.4842 33.9621 50.389 34.0404 50.2813 34.0981C50.1737 34.1558 50.0557 34.1917 49.9342 34.2038C49.8126 34.2159 49.6899 34.2039 49.573 34.1685C49.4561 34.1332 49.3473 34.0752 49.2528 33.9978C49.1583 33.9204 49.08 33.8251 49.0223 33.7175C48.9647 33.6098 48.9288 33.4919 48.9167 33.3703C48.9046 33.2488 48.9166 33.1261 48.9519 33.0092C49.6807 30.591 51.5771 29.0093 53.9455 28.2557C54.0618 28.2185 54.1844 28.2045 54.3062 28.2148C54.4279 28.225 54.5464 28.2592 54.6549 28.3153C54.7634 28.3715 54.8598 28.4486 54.9384 28.5421C55.017 28.6356 55.0764 28.7437 55.1131 28.8603Z" fill="#372128"/>
</svg>
