<svg width="10" height="12" viewBox="0 0 10 12" fill="none" xmlns="http://www.w3.org/2000/svg">
<path d="M5.18912 11.3045C5.09562 11.3713 4.98361 11.4072 4.86874 11.4072C4.75387 11.4072 4.64187 11.3713 4.54837 11.3045C1.7857 9.33384 -1.14631 5.28035 1.81774 2.35131C2.63118 1.54983 3.72721 1.10106 4.86874 1.10205C6.01294 1.10205 7.1108 1.55149 7.91974 2.35073C10.8838 5.27978 7.95178 9.33269 5.18912 11.3045Z" stroke="white" stroke-width="1.17123" stroke-linecap="round" stroke-linejoin="round"/>
<path d="M4.86881 6.25495C5.17227 6.25495 5.4633 6.13431 5.67788 5.91957C5.89246 5.70483 6.013 5.41358 6.013 5.1099C6.013 4.80621 5.89246 4.51496 5.67788 4.30022C5.4633 4.08548 5.17227 3.96484 4.86881 3.96484C4.56535 3.96484 4.27432 4.08548 4.05974 4.30022C3.84516 4.51496 3.72461 4.80621 3.72461 5.1099C3.72461 5.41358 3.84516 5.70483 4.05974 5.91957C4.27432 6.13431 4.56535 6.25495 4.86881 6.25495Z" stroke="white" stroke-width="1.17123" stroke-linecap="round" stroke-linejoin="round"/>
</svg>
