<svg width="974" height="455" viewBox="0 0 974 455" fill="none" xmlns="http://www.w3.org/2000/svg">
<line x1="36.5" y1="1.39959e-08" x2="36.5" y2="455" stroke="white"/>
<line x1="0.5" y1="1.39959e-08" x2="0.499969" y2="455" stroke="white"/>
<line x1="72.5" y1="1.39959e-08" x2="72.5" y2="455" stroke="white"/>
<line x1="108.5" y1="1.39959e-08" x2="108.5" y2="455" stroke="white"/>
<line x1="144.5" y1="1.39959e-08" x2="144.5" y2="455" stroke="white"/>
<line x1="180.5" y1="1.39959e-08" x2="180.5" y2="455" stroke="white"/>
<line x1="216.5" y1="1.39959e-08" x2="216.5" y2="455" stroke="white"/>
<line x1="252.5" y1="1.39959e-08" x2="252.5" y2="455" stroke="white"/>
<line x1="288.5" y1="1.39959e-08" x2="288.5" y2="455" stroke="white"/>
<line x1="324.5" y1="1.39959e-08" x2="324.5" y2="455" stroke="white"/>
<line x1="381.5" y1="1.39959e-08" x2="381.5" y2="455" stroke="white"/>
<line x1="417.5" y1="1.39959e-08" x2="417.5" y2="455" stroke="white"/>
<line x1="453.5" y1="1.39959e-08" x2="453.5" y2="455" stroke="white"/>
<line x1="489.5" y1="1.39959e-08" x2="489.5" y2="455" stroke="white"/>
<line x1="525.5" y1="1.39959e-08" x2="525.5" y2="455" stroke="white"/>
<line x1="561.5" y1="1.39959e-08" x2="561.5" y2="455" stroke="white"/>
<line x1="597.5" y1="1.39959e-08" x2="597.5" y2="455" stroke="white"/>
<line x1="633.5" y1="1.39959e-08" x2="633.5" y2="455" stroke="white"/>
<line x1="669.5" y1="1.39959e-08" x2="669.5" y2="455" stroke="white"/>
<line x1="705.5" y1="1.39959e-08" x2="705.5" y2="455" stroke="white"/>
<line x1="763.5" y1="1.39959e-08" x2="763.5" y2="455" stroke="white"/>
<line x1="833.5" y1="1.39959e-08" x2="833.5" y2="455" stroke="white"/>
<line x1="903.5" y1="1.39959e-08" x2="903.5" y2="455" stroke="white"/>
<line x1="973.5" y1="1.39959e-08" x2="973.5" y2="455" stroke="white"/>
</svg>
