<svg width="10" height="13" viewBox="0 0 10 13" fill="none" xmlns="http://www.w3.org/2000/svg">
<path d="M5.18912 11.4419C5.09562 11.5087 4.98361 11.5446 4.86874 11.5446C4.75387 11.5446 4.64187 11.5087 4.54837 11.4419C1.7857 9.47129 -1.14631 5.4178 1.81774 2.48876C2.63118 1.68729 3.72721 1.23851 4.86874 1.2395C6.01294 1.2395 7.1108 1.68894 7.91974 2.48818C10.8838 5.41723 7.95178 9.47015 5.18912 11.4419Z" stroke="white" stroke-width="1.17123" stroke-linecap="round" stroke-linejoin="round"/>
<path d="M4.86881 6.39216C5.17227 6.39216 5.4633 6.27152 5.67788 6.05678C5.89246 5.84204 6.013 5.55079 6.013 5.2471C6.013 4.94342 5.89246 4.65217 5.67788 4.43743C5.4633 4.22269 5.17227 4.10205 4.86881 4.10205C4.56535 4.10205 4.27432 4.22269 4.05974 4.43743C3.84516 4.65217 3.72461 4.94342 3.72461 5.2471C3.72461 5.55079 3.84516 5.84204 4.05974 6.05678C4.27432 6.27152 4.56535 6.39216 4.86881 6.39216Z" stroke="white" stroke-width="1.17123" stroke-linecap="round" stroke-linejoin="round"/>
</svg>
