<svg width="17" height="40" viewBox="0 0 17 40" fill="none" xmlns="http://www.w3.org/2000/svg">
<rect x="0.0410156" y="0.759766" width="16.3973" height="39.0411" rx="1.56164" fill="#17B3A6"/>
<line x1="0.0410156" y1="18.3283" x2="16.4383" y2="18.3283" stroke="white" stroke-width="0.780822"/>
<path d="M12.6479 10.018H10.8631C10.0006 10.018 9.30147 10.7172 9.30147 11.5797V13.3644C9.30147 13.5419 9.23096 13.7121 9.10545 13.8377C8.97993 13.9632 8.8097 14.0337 8.6322 14.0337C8.45469 14.0337 8.28446 13.9632 8.15895 13.8377C8.03343 13.7121 7.96292 13.5419 7.96292 13.3644V11.5797C7.96292 10.7172 7.26375 10.018 6.40128 10.018H4.61654C4.43904 10.018 4.26881 9.94751 4.14329 9.822C4.01778 9.69649 3.94727 9.52625 3.94727 9.34875C3.94727 9.17125 4.01778 9.00101 4.14329 8.8755C4.26881 8.74999 4.43904 8.67947 4.61654 8.67947H6.40128C7.26375 8.67947 7.96292 7.9803 7.96292 7.11783V5.33309C7.96292 5.15559 8.03343 4.98536 8.15895 4.85984C8.28446 4.73433 8.45469 4.66382 8.6322 4.66382C8.8097 4.66382 8.97993 4.73433 9.10545 4.85984C9.23096 4.98536 9.30147 5.15559 9.30147 5.33309V7.11783C9.30147 7.9803 10.0006 8.67947 10.8631 8.67947H12.6479C12.8254 8.67947 12.9956 8.74999 13.1211 8.8755C13.2466 9.00101 13.3171 9.17125 13.3171 9.34875C13.3171 9.52625 13.2466 9.69649 13.1211 9.822C12.9956 9.94751 12.8254 10.018 12.6479 10.018Z" fill="white"/>
<path d="M11.7555 35.3763C11.3217 35.3763 10.953 35.2245 10.6493 34.9208C10.3457 34.6172 10.1938 34.2484 10.1938 33.8146C10.1938 33.7539 10.1982 33.6909 10.2069 33.6257C10.2207 33.5218 10.1809 33.4125 10.0903 33.3598L7.0812 31.6098C6.77956 31.4344 6.40485 31.4909 6.08151 31.6221C5.89932 31.696 5.70845 31.7328 5.50891 31.7325C5.07512 31.7325 4.7064 31.5806 4.40275 31.277C4.09909 30.9733 3.94727 30.6046 3.94727 30.1708C3.94727 29.737 4.09909 29.3683 4.40275 29.0646C4.7064 28.761 5.07512 28.6092 5.50891 28.6092C5.70845 28.6092 5.89932 28.6461 6.08151 28.72C6.40477 28.8512 6.77938 28.9073 7.08094 28.732L10.0903 26.9818C10.1809 26.9291 10.2207 26.8198 10.2069 26.7159C10.1982 26.651 10.1938 26.5881 10.1938 26.527C10.1938 26.0932 10.3457 25.7245 10.6493 25.4208C10.953 25.1172 11.3217 24.9653 11.7555 24.9653C12.1893 24.9653 12.558 25.1172 12.8616 25.4208C13.1653 25.7245 13.3171 26.0932 13.3171 26.527C13.3171 26.9608 13.1653 27.3295 12.8616 27.6331C12.558 27.9368 12.1893 28.0886 11.7555 28.0886C11.5559 28.0886 11.3651 28.0518 11.1829 27.9783C10.8594 27.8476 10.4847 27.7906 10.1832 27.966L7.17452 29.7157C7.08364 29.7685 7.04368 29.8782 7.05754 29.9824C7.06622 30.0476 7.07055 30.1104 7.07055 30.1708C7.07055 30.2315 7.06622 30.2945 7.05754 30.3598C7.04373 30.4636 7.0835 30.573 7.17409 30.6257L10.1834 32.3758C10.4849 32.5511 10.8595 32.4945 11.1829 32.3639C11.3651 32.2903 11.5559 32.2534 11.7555 32.253C12.1893 32.253 12.558 32.4048 12.8616 32.7085C13.1653 33.0121 13.3171 33.3809 13.3171 33.8146C13.3171 34.2484 13.1653 34.6172 12.8616 34.9208C12.558 35.2245 12.1893 35.3763 11.7555 35.3763ZM11.7555 27.0475C11.903 27.0475 12.0267 26.9976 12.1266 26.8976C12.2266 26.7977 12.2764 26.6741 12.276 26.527C12.276 26.3795 12.2261 26.2558 12.1261 26.1558C12.0262 26.0559 11.9026 26.0061 11.7555 26.0064C11.608 26.0064 11.4843 26.0564 11.3843 26.1563C11.2844 26.2563 11.2346 26.3798 11.2349 26.527C11.2349 26.6745 11.2849 26.7982 11.3849 26.8981C11.4848 26.9981 11.6083 27.0479 11.7555 27.0475ZM5.50891 30.6914C5.6564 30.6914 5.78011 30.6414 5.88006 30.5414C5.98001 30.4415 6.0298 30.318 6.02946 30.1708C6.02946 30.0233 5.97948 29.8996 5.87954 29.7997C5.77959 29.6997 5.65605 29.6499 5.50891 29.6503C5.36142 29.6503 5.2377 29.7002 5.13776 29.8002C5.03781 29.9001 4.98801 30.0237 4.98836 30.1708C4.98836 30.3183 5.03833 30.442 5.13828 30.542C5.23822 30.6419 5.36177 30.6917 5.50891 30.6914ZM11.7555 34.3352C11.903 34.3352 12.0267 34.2852 12.1266 34.1853C12.2266 34.0853 12.2764 33.9618 12.276 33.8146C12.276 33.6672 12.2261 33.5434 12.1261 33.4435C12.0262 33.3436 11.9026 33.2938 11.7555 33.2941C11.608 33.2941 11.4843 33.3441 11.3843 33.444C11.2844 33.544 11.2346 33.6675 11.2349 33.8146C11.2349 33.9621 11.2849 34.0859 11.3849 34.1858C11.4848 34.2857 11.6083 34.3355 11.7555 34.3352Z" fill="white"/>
</svg>
