<svg width="17" height="20" viewBox="0 0 17 20" fill="none" xmlns="http://www.w3.org/2000/svg">
<path d="M9.05376 18.82C8.89045 18.9366 8.69482 18.9993 8.49418 18.9993C8.29354 18.9993 8.09791 18.9366 7.9346 18.82C3.1092 15.378 -2.01197 8.298 3.16516 3.182C4.58596 1.78212 6.50034 0.998265 8.49418 1C10.4927 1 12.4103 1.785 13.8232 3.181C19.0003 8.297 13.8792 15.376 9.05376 18.82Z" stroke="white" stroke-width="1.5" stroke-linecap="round" stroke-linejoin="round"/>
<path d="M8.4946 10C9.02464 10 9.53296 9.78929 9.90776 9.41421C10.2825 9.03914 10.4931 8.53043 10.4931 8C10.4931 7.46957 10.2825 6.96086 9.90776 6.58579C9.53296 6.21071 9.02464 6 8.4946 6C7.96456 6 7.45624 6.21071 7.08144 6.58579C6.70665 6.96086 6.49609 7.46957 6.49609 8C6.49609 8.53043 6.70665 9.03914 7.08144 9.41421C7.45624 9.78929 7.96456 10 8.4946 10Z" stroke="white" stroke-width="1.5" stroke-linecap="round" stroke-linejoin="round"/>
</svg>
