<svg width="20" height="20" viewBox="0 0 20 20" fill="none" xmlns="http://www.w3.org/2000/svg">
<path d="M1.7473 1H17.7354C18.0004 1 18.2545 1.10536 18.4419 1.29289C18.6293 1.48043 18.7346 1.73478 18.7346 2V3.586C18.7345 3.85119 18.6292 4.10551 18.4418 4.293L12.0316 10.707C11.8446 10.8947 11.7396 11.1489 11.7398 11.414V17.719C11.7398 17.871 11.7052 18.021 11.6386 18.1576C11.5719 18.2942 11.4751 18.4138 11.3553 18.5073C11.2356 18.6008 11.0961 18.6658 10.9475 18.6973C10.7989 18.7288 10.6451 18.7259 10.4978 18.689L8.49925 18.189C8.28317 18.1348 8.09137 18.01 7.95432 17.8342C7.81727 17.6585 7.74283 17.4419 7.74282 17.219V11.414C7.74276 11.1488 7.63745 10.8945 7.45004 10.707L1.03983 4.293C0.852786 4.10534 0.747839 3.85105 0.748047 3.586V2C0.748047 1.73478 0.853325 1.48043 1.04072 1.29289C1.22812 1.10536 1.48228 1 1.7473 1Z" stroke="#A9A9A9" stroke-width="1.5" stroke-linecap="round" stroke-linejoin="round"/>
</svg>
