<svg width="10" height="12" viewBox="0 0 10 12" fill="none" xmlns="http://www.w3.org/2000/svg">
<path d="M5.18912 11.1678C5.09562 11.2345 4.98361 11.2704 4.86874 11.2704C4.75387 11.2704 4.64187 11.2345 4.54837 11.1678C1.7857 9.19712 -1.14631 5.14363 1.81774 2.21459C2.63118 1.41312 3.72721 0.964339 4.86874 0.965334C6.01294 0.965334 7.1108 1.41477 7.91974 2.21401C10.8838 5.14306 7.95178 9.19598 5.18912 11.1678Z" stroke="#C00002" stroke-width="1.17123" stroke-linecap="round" stroke-linejoin="round"/>
<path d="M4.86881 6.11799C5.17227 6.11799 5.4633 5.99735 5.67788 5.78261C5.89246 5.56787 6.013 5.27662 6.013 4.97293C6.013 4.66925 5.89246 4.378 5.67788 4.16326C5.4633 3.94852 5.17227 3.82788 4.86881 3.82788C4.56535 3.82788 4.27432 3.94852 4.05974 4.16326C3.84516 4.378 3.72461 4.66925 3.72461 4.97293C3.72461 5.27662 3.84516 5.56787 4.05974 5.78261C4.27432 5.99735 4.56535 6.11799 4.86881 6.11799Z" stroke="#C00002" stroke-width="1.17123" stroke-linecap="round" stroke-linejoin="round"/>
</svg>
