<svg width="80" height="1246" viewBox="0 0 80 1246" fill="none" xmlns="http://www.w3.org/2000/svg">
<rect width="80" height="1246" fill="#17B3A6"/>
<rect width="80" height="87" fill="#3A66C0"/>
<path d="M24 33H56M24 43.6667H56M24 54.3333H56" stroke="white" stroke-width="3" stroke-linecap="round" stroke-linejoin="round"/>
<path d="M49.6371 160.456L37.0385 146.458C36.508 145.867 35.4889 145.867 34.9583 146.458L22.3597 160.456C22.1784 160.657 22.0594 160.907 22.0171 161.174C21.9749 161.441 22.0112 161.715 22.1218 161.962C22.3457 162.468 22.8469 162.792 23.3998 162.792H26.1995V172.591C26.1995 172.963 26.347 173.319 26.6095 173.581C26.872 173.844 27.2281 173.991 27.5994 173.991H31.7989C32.1701 173.991 32.5262 173.844 32.7887 173.581C33.0512 173.319 33.1987 172.963 33.1987 172.591V166.992H38.7981V172.591C38.7981 172.963 38.9456 173.319 39.2081 173.581C39.4706 173.844 39.8267 173.991 40.1979 173.991H44.3975C44.7687 173.991 45.1248 173.844 45.3873 173.581C45.6498 173.319 45.7973 172.963 45.7973 172.591V162.792H48.597C48.8681 162.794 49.1337 162.716 49.3614 162.569C49.589 162.422 49.769 162.211 49.8792 161.964C49.9895 161.716 50.0253 161.442 49.9823 161.174C49.9393 160.906 49.8194 160.657 49.6371 160.456Z" fill="white"/>
<line x1="4.37114e-08" y1="208.5" x2="80" y2="208.5" stroke="white"/>
<line x1="4.37114e-08" y1="289.486" x2="80" y2="289.486" stroke="white"/>
<path d="M40.699 259.987C40.6993 260.783 40.4008 261.551 39.8634 262.135C39.326 262.719 38.5895 263.077 37.8014 263.137L37.5664 263.145H34.4338C33.6435 263.145 32.8823 262.844 32.3028 262.302C31.7233 261.76 31.3683 261.018 31.309 260.223L31.3012 259.987H40.699ZM36.0001 233.145C38.8429 233.144 41.5746 234.258 43.619 236.249C45.6633 238.24 46.8605 240.954 46.958 243.818L46.9642 244.197V250.14L49.818 255.894C49.9426 256.145 50.0049 256.423 49.9997 256.703C49.9945 256.984 49.9219 257.259 49.7881 257.505C49.6543 257.752 49.4633 257.961 49.2314 258.117C48.9996 258.272 48.7339 258.369 48.4569 258.398L48.2768 258.408H23.7234C23.4449 258.408 23.1705 258.34 22.9237 258.21C22.677 258.079 22.4652 257.891 22.3066 257.66C22.148 257.429 22.0473 257.163 22.013 256.884C21.9788 256.606 22.0122 256.323 22.1102 256.06L22.1822 255.894L25.036 250.14V244.197C25.036 241.266 26.1911 238.455 28.2473 236.382C30.3035 234.309 33.0923 233.145 36.0001 233.145Z" fill="white"/>
<line x1="4.37114e-08" y1="775.398" x2="80" y2="775.398" stroke="white"/>
<path fill-rule="evenodd" clip-rule="evenodd" d="M33.7252 725.232C38.1087 724.902 42.5116 724.924 46.8916 725.297L49.53 725.522C50.4989 725.604 51.4118 726.01 52.1221 726.674C52.8324 727.338 53.2988 728.222 53.4463 729.183L53.6121 730.27C54.1773 733.957 54.1245 737.712 53.456 741.382C53.2962 742.259 52.8336 743.053 52.1488 743.624C51.4641 744.195 50.6006 744.508 49.7088 744.508H35.1168C34.7803 744.508 34.4503 744.591 34.1544 744.75L27.7964 748.167C27.6106 748.267 27.4021 748.317 27.1912 748.312C26.9803 748.308 26.7744 748.248 26.5933 748.14C26.4123 748.032 26.2625 747.878 26.1585 747.695C26.0545 747.511 25.9999 747.304 26 747.093V733.247C26.0004 731.226 26.7643 729.28 28.1386 727.798C29.5129 726.317 31.3963 725.409 33.4115 725.257L33.7252 725.232ZM33.722 733.275C33.183 733.275 32.6661 733.489 32.2851 733.87C31.904 734.251 31.6899 734.768 31.6899 735.307C31.6899 735.846 31.904 736.363 32.2851 736.744C32.6661 737.125 33.183 737.339 33.722 737.339C34.2609 737.339 34.7778 737.125 35.1589 736.744C35.54 736.363 35.7541 735.846 35.7541 735.307C35.7541 734.768 35.54 734.251 35.1589 733.87C34.7778 733.489 34.2609 733.275 33.722 733.275ZM40.2247 733.275C39.6857 733.275 39.1688 733.489 38.7878 733.87C38.4067 734.251 38.1926 734.768 38.1926 735.307C38.1926 735.846 38.4067 736.363 38.7878 736.744C39.1688 737.125 39.6857 737.339 40.2247 737.339C40.7636 737.339 41.2805 737.125 41.6616 736.744C42.0427 736.363 42.2568 735.846 42.2568 735.307C42.2568 734.768 42.0427 734.251 41.6616 733.87C41.2805 733.489 40.7636 733.275 40.2247 733.275ZM44.6953 735.307C44.6953 734.768 44.9094 734.251 45.2905 733.87C45.6715 733.489 46.1884 733.275 46.7274 733.275C47.2663 733.275 47.7832 733.489 48.1643 733.87C48.5454 734.251 48.7595 734.768 48.7595 735.307C48.7595 735.846 48.5454 736.363 48.1643 736.744C47.7832 737.125 47.2663 737.339 46.7274 737.339C46.1884 737.339 45.6715 737.125 45.2905 736.744C44.9094 736.363 44.6953 735.846 44.6953 735.307Z" fill="white"/>
<line x1="4.37114e-08" y1="856.384" x2="80" y2="856.384" stroke="white"/>
<path d="M36.0054 813.756C35.0175 813.756 34.0924 814.139 33.3919 814.84C32.6948 815.54 32.3082 816.465 32.3082 817.453C32.3082 818.441 32.6948 819.366 33.3919 820.067C34.0924 820.764 35.0175 821.151 36.0054 821.151C36.9933 821.151 37.9184 820.764 38.6188 820.067C39.316 819.366 39.7026 818.441 39.7026 817.453C39.7026 816.465 39.316 815.54 38.6188 814.84C38.2767 814.495 37.8695 814.222 37.4209 814.036C36.9722 813.85 36.4911 813.755 36.0054 813.756ZM49.6278 821.537L47.467 819.69C47.5694 819.062 47.6222 818.421 47.6222 817.784C47.6222 817.146 47.5694 816.502 47.467 815.877L49.6278 814.03C49.791 813.891 49.9078 813.705 49.9627 813.497C50.0176 813.289 50.008 813.07 49.935 812.867L49.9053 812.782C49.3106 811.119 48.4196 809.577 47.2753 808.232L47.2159 808.163C47.0769 807.999 46.8917 807.882 46.6847 807.826C46.4777 807.77 46.2585 807.778 46.0562 807.849L43.3733 808.803C42.3821 807.991 41.2786 807.35 40.0825 806.904L39.5638 804.099C39.5246 803.887 39.4221 803.693 39.2699 803.541C39.1176 803.39 38.9228 803.288 38.7114 803.249L38.6221 803.233C36.9041 802.922 35.0935 802.922 33.3754 803.233L33.2862 803.249C33.0747 803.288 32.8799 803.39 32.7276 803.541C32.5754 803.693 32.4729 803.887 32.4337 804.099L31.9117 806.917C30.727 807.366 29.6233 808.006 28.6441 808.81L25.9414 807.849C25.7391 807.777 25.5198 807.769 25.3126 807.825C25.1055 807.881 24.9203 807.999 24.7817 808.163L24.7222 808.232C23.58 809.579 22.6892 811.12 22.0922 812.782L22.0625 812.867C21.9138 813.28 22.0361 813.743 22.3698 814.03L24.557 815.897C24.4546 816.518 24.405 817.153 24.405 817.78C24.405 818.415 24.4546 819.049 24.557 819.664L22.3764 821.531C22.2131 821.67 22.0963 821.856 22.0414 822.064C21.9865 822.272 21.9962 822.491 22.0691 822.694L22.0988 822.779C22.6969 824.441 23.579 825.978 24.7288 827.329L24.7883 827.398C24.9272 827.562 25.1124 827.679 25.3194 827.735C25.5265 827.791 25.7456 827.783 25.948 827.712L28.6507 826.751C29.6353 827.56 30.7322 828.201 31.9183 828.644L32.4404 831.462C32.4795 831.674 32.582 831.868 32.7343 832.02C32.8865 832.171 33.0813 832.273 33.2928 832.311L33.382 832.328C35.117 832.64 36.8938 832.64 38.6288 832.328L38.718 832.311C38.9294 832.273 39.1242 832.171 39.2765 832.02C39.4287 831.868 39.5313 831.674 39.5704 831.462L40.0891 828.657C41.2852 828.208 42.3887 827.57 43.3799 826.757L46.0628 827.712C46.2651 827.784 46.4844 827.792 46.6915 827.736C46.8987 827.68 47.0839 827.562 47.2225 827.398L47.2819 827.329C48.4317 825.971 49.3139 824.441 49.9119 822.779L49.9417 822.694C50.0837 822.284 49.9615 821.825 49.6278 821.537ZM36.0054 823.262C32.7972 823.262 30.1969 820.662 30.1969 817.453C30.1969 814.245 32.7972 811.645 36.0054 811.645C39.2136 811.645 41.8138 814.245 41.8138 817.453C41.8138 820.662 39.2136 823.262 36.0054 823.262Z" fill="white"/>
<line x1="4.37114e-08" y1="936.384" x2="80" y2="936.384" stroke="white"/>
<path fill-rule="evenodd" clip-rule="evenodd" d="M26.4211 886C25.2486 886 24.124 886.466 23.2949 887.295C22.4658 888.124 22 889.249 22 890.421V911.053C22 912.225 22.4658 913.35 23.2949 914.179C24.124 915.008 25.2486 915.474 26.4211 915.474H35.2633C36.4359 915.474 37.5604 915.008 38.3895 914.179C39.2186 913.35 39.6844 912.225 39.6844 911.053V890.421C39.6844 889.249 39.2186 888.124 38.3895 887.295C37.5604 886.466 36.4359 886 35.2633 886H26.4211ZM41.5899 893.8C41.8663 893.524 42.241 893.369 42.6318 893.369C43.0226 893.369 43.3974 893.524 43.6737 893.8L49.5685 899.695C49.8448 899.971 50 900.346 50 900.737C50 901.128 49.8448 901.503 49.5685 901.779L43.6737 907.674C43.3958 907.942 43.0235 908.091 42.6371 908.087C42.2507 908.084 41.8811 907.929 41.6079 907.656C41.3346 907.383 41.1796 907.013 41.1763 906.627C41.1729 906.24 41.3215 905.868 41.5899 905.59L44.9691 902.211H32.3159C31.9251 902.211 31.5502 902.055 31.2738 901.779C30.9975 901.503 30.8422 901.128 30.8422 900.737C30.8422 900.346 30.9975 899.971 31.2738 899.695C31.5502 899.419 31.9251 899.263 32.3159 899.263H44.9691L41.5899 895.884C41.3136 895.608 41.1584 895.233 41.1584 894.842C41.1584 894.451 41.3136 894.077 41.5899 893.8Z" fill="white"/>
<line x1="4.37114e-08" y1="532.442" x2="80" y2="532.442" stroke="white"/>
<path d="M36 484C37.083 484 38.1216 484.43 38.8874 485.196C39.6531 485.962 40.0833 487 40.0833 488.083C40.0833 489.166 39.6531 490.205 38.8874 490.971C38.1216 491.736 37.083 492.167 36 492.167C34.917 492.167 33.8784 491.736 33.1126 490.971C32.3469 490.205 31.9167 489.166 31.9167 488.083C31.9167 487 32.3469 485.962 33.1126 485.196C33.8784 484.43 34.917 484 36 484ZM27.8333 486.917C28.4867 486.917 29.0933 487.092 29.6183 487.407C29.4433 489.075 29.9333 490.732 30.9367 492.027C30.3533 493.147 29.1867 493.917 27.8333 493.917C26.9051 493.917 26.0148 493.548 25.3585 492.892C24.7021 492.235 24.3333 491.345 24.3333 490.417C24.3333 489.488 24.7021 488.598 25.3585 487.942C26.0148 487.285 26.9051 486.917 27.8333 486.917ZM44.1667 486.917C45.0949 486.917 45.9852 487.285 46.6415 487.942C47.2979 488.598 47.6667 489.488 47.6667 490.417C47.6667 491.345 47.2979 492.235 46.6415 492.892C45.9852 493.548 45.0949 493.917 44.1667 493.917C42.8133 493.917 41.6467 493.147 41.0633 492.027C42.0805 490.713 42.5527 489.059 42.3817 487.407C42.9067 487.092 43.5133 486.917 44.1667 486.917ZM28.4167 498.875C28.4167 496.46 31.8117 494.5 36 494.5C40.1883 494.5 43.5833 496.46 43.5833 498.875V500.917H28.4167V498.875ZM22 500.917V499.167C22 497.545 24.205 496.18 27.1917 495.783C26.5033 496.577 26.0833 497.673 26.0833 498.875V500.917H22ZM50 500.917H45.9167V498.875C45.9167 497.673 45.4967 496.577 44.8083 495.783C47.795 496.18 50 497.545 50 499.167V500.917Z" fill="white"/>
<line x1="4.37114e-08" y1="613.427" x2="80" y2="613.427" stroke="white"/>
<path d="M45.8 562.802H43V561.401C43 561.029 42.8525 560.673 42.59 560.41C42.3274 560.148 41.9713 560 41.6 560C41.2287 560 40.8726 560.148 40.6101 560.41C40.3475 560.673 40.2 561.029 40.2 561.401V562.802H31.8V561.401C31.8 561.029 31.6525 560.673 31.3899 560.41C31.1274 560.148 30.7713 560 30.4 560C30.0287 560 29.6726 560.148 29.4101 560.41C29.1475 560.673 29 561.029 29 561.401V562.802H26.2C25.0861 562.802 24.0178 563.245 23.2302 564.033C22.4425 564.821 22 565.89 22 567.005V583.818C22 584.933 22.4425 586.002 23.2302 586.79C24.0178 587.578 25.0861 588.021 26.2 588.021H45.8C46.9139 588.021 47.9822 587.578 48.7698 586.79C49.5575 586.002 50 584.933 50 583.818V567.005C50 565.89 49.5575 564.821 48.7698 564.033C47.9822 563.245 46.9139 562.802 45.8 562.802ZM47.2 583.818C47.2 584.189 47.0525 584.546 46.7899 584.808C46.5274 585.071 46.1713 585.219 45.8 585.219H26.2C25.8287 585.219 25.4726 585.071 25.2101 584.808C24.9475 584.546 24.8 584.189 24.8 583.818V574.01H47.2V583.818ZM47.2 571.208H24.8V567.005C24.8 566.634 24.9475 566.277 25.2101 566.015C25.4726 565.752 25.8287 565.604 26.2 565.604H29V567.005C29 567.377 29.1475 567.733 29.4101 567.996C29.6726 568.259 30.0287 568.406 30.4 568.406C30.7713 568.406 31.1274 568.259 31.3899 567.996C31.6525 567.733 31.8 567.377 31.8 567.005V565.604H40.2V567.005C40.2 567.377 40.3475 567.733 40.6101 567.996C40.8726 568.259 41.2287 568.406 41.6 568.406C41.9713 568.406 42.3274 568.259 42.59 567.996C42.8525 567.733 43 567.377 43 567.005V565.604H45.8C46.1713 565.604 46.5274 565.752 46.7899 566.015C47.0525 566.277 47.2 566.634 47.2 567.005V571.208Z" fill="white"/>
<line x1="4.37114e-08" y1="370.471" x2="80" y2="370.471" stroke="white"/>
<path d="M29.7778 325.778C29.9841 325.778 30.1819 325.696 30.3277 325.55C30.4736 325.404 30.5556 325.206 30.5556 325V320.333C30.5556 320.127 30.4736 319.929 30.3277 319.783C30.1819 319.638 29.9841 319.556 29.7778 319.556C29.5715 319.556 29.3737 319.638 29.2278 319.783C29.0819 319.929 29 320.127 29 320.333V325C29 325.206 29.0819 325.404 29.2278 325.55C29.3737 325.696 29.5715 325.778 29.7778 325.778Z" fill="white"/>
<path d="M48.1949 329.978H42.4549C42.4852 330.142 42.4755 330.311 42.4268 330.471C42.3781 330.63 42.2917 330.776 42.1749 330.895L34.6538 338.417L30.5549 334.287C30.3733 334.087 30.2749 333.825 30.2799 333.555C30.2849 333.285 30.3929 333.028 30.5818 332.835C30.7707 332.642 31.0262 332.529 31.2959 332.518C31.5656 332.507 31.8292 332.6 32.0327 332.778L34.6616 335.407L40.106 329.962H39.3282C38.8231 329.973 38.3242 329.849 37.8822 329.604C37.4402 329.36 37.0709 329.002 36.8117 328.569C36.5526 328.135 36.4129 327.64 36.4068 327.135C36.4007 326.63 36.5285 326.132 36.7771 325.692L38.5582 322.667H31.4882V325C31.4882 325.454 31.3079 325.889 30.987 326.21C30.6662 326.531 30.2309 326.711 29.7771 326.711C29.3233 326.711 28.8881 326.531 28.5672 326.21C28.2463 325.889 28.066 325.454 28.066 325V322.667H24.9549C24.7698 322.664 24.5862 322.7 24.4148 322.77C24.2435 322.84 24.088 322.943 23.9575 323.075C23.8269 323.206 23.7241 323.362 23.6549 323.534C23.5858 323.705 23.5518 323.889 23.5549 324.074V341.481C23.5518 341.663 23.5846 341.843 23.6513 342.013C23.718 342.182 23.8174 342.336 23.9438 342.467C24.0702 342.598 24.2211 342.702 24.3879 342.775C24.5547 342.847 24.7342 342.886 24.916 342.889H47.0827C47.2645 342.886 47.4439 342.847 47.6107 342.775C47.7775 342.702 47.9284 342.598 48.0548 342.467C48.1812 342.336 48.2806 342.182 48.3474 342.013C48.4141 341.843 48.4469 341.663 48.4438 341.481V329.962L48.1949 329.978Z" fill="white"/>
<path d="M42.8834 318.887L38.4345 326.556C38.331 326.707 38.2716 326.885 38.2628 327.069C38.2541 327.252 38.2964 327.435 38.385 327.596C38.4735 327.757 38.605 327.89 38.7648 327.981C38.9245 328.072 39.1063 328.117 39.2901 328.111H48.1956C48.3794 328.117 48.5612 328.072 48.7209 327.981C48.8807 327.89 49.0122 327.757 49.1008 327.596C49.1893 327.435 49.2316 327.252 49.2229 327.069C49.2141 326.885 49.1547 326.707 49.0512 326.556L44.6023 318.887C44.5146 318.737 44.3891 318.612 44.2383 318.526C44.0875 318.439 43.9167 318.394 43.7429 318.394C43.569 318.394 43.3982 318.439 43.2474 318.526C43.0967 318.612 42.9711 318.737 42.8834 318.887Z" fill="white"/>
<line x1="4.37114e-08" y1="451.457" x2="80" y2="451.457" stroke="white"/>
<path d="M32.2222 428V424.889H38.4444V420.067C37.1741 419.781 36.0396 419.243 35.0409 418.452C34.0422 417.661 33.3101 416.669 32.8444 415.478C30.9 415.244 29.2729 414.396 27.9631 412.931C26.6533 411.467 25.999 409.749 26 407.778V406.222C26 405.367 26.3049 404.634 26.9147 404.024C27.5244 403.414 28.2566 403.11 29.1111 403.111H32.2222V400H47.7778V403.111H50.8889C51.7444 403.111 52.4771 403.416 53.0869 404.026C53.6967 404.636 54.001 405.368 54 406.222V407.778C54 409.748 53.3451 411.466 52.0353 412.931C50.7256 414.397 49.099 415.245 47.1556 415.478C46.6889 416.67 45.9562 417.662 44.9576 418.454C43.9589 419.245 42.8249 419.783 41.5556 420.067V424.889H47.7778V428H32.2222ZM32.2222 412.133V406.222H29.1111V407.778C29.1111 408.763 29.3963 409.651 29.9667 410.442C30.537 411.234 31.2889 411.797 32.2222 412.133ZM47.7778 412.133C48.7111 411.796 49.463 411.232 50.0333 410.441C50.6037 409.65 50.8889 408.762 50.8889 407.778V406.222H47.7778V412.133Z" fill="white"/>
<line x1="4.37114e-08" y1="694.413" x2="80" y2="694.413" stroke="white"/>
<path fill-rule="evenodd" clip-rule="evenodd" d="M34.6667 646.333C34.6667 644.919 35.2286 643.562 36.2288 642.562C37.229 641.562 38.5855 641 40 641C41.4145 641 42.771 641.562 43.7712 642.562C44.7714 643.562 45.3333 644.919 45.3333 646.333C45.3333 647.748 44.7714 649.104 43.7712 650.105C42.771 651.105 41.4145 651.667 40 651.667C38.5855 651.667 37.229 651.105 36.2288 650.105C35.2286 649.104 34.6667 647.748 34.6667 646.333ZM34.6667 654.333C32.8986 654.333 31.2029 655.036 29.9526 656.286C28.7024 657.536 28 659.232 28 661C28 662.061 28.4214 663.078 29.1716 663.828C29.9217 664.579 30.9391 665 32 665H48C49.0609 665 50.0783 664.579 50.8284 663.828C51.5786 663.078 52 662.061 52 661C52 659.232 51.2976 657.536 50.0474 656.286C48.7971 655.036 47.1014 654.333 45.3333 654.333H34.6667Z" fill="white"/>
</svg>
