<svg width="14" height="9" viewBox="0 0 14 9" fill="none" xmlns="http://www.w3.org/2000/svg">
<path fill-rule="evenodd" clip-rule="evenodd" d="M1.71292 0.34908L6.8998 6.87169L12.0867 0.34908C12.1548 0.263424 12.2424 0.189854 12.3444 0.13257C12.4464 0.0752872 12.5609 0.0354127 12.6813 0.0152233C12.8018 -0.00496605 12.9257 -0.00507496 13.0462 0.0149032C13.1667 0.0348813 13.2812 0.0745552 13.3834 0.131659C13.5898 0.246986 13.733 0.42631 13.7816 0.630181C13.8057 0.731128 13.8059 0.835063 13.782 0.936052C13.7582 1.03704 13.7109 1.13311 13.6428 1.21876L7.7629 8.6128C7.66817 8.73191 7.53982 8.82957 7.38926 8.89711C7.23869 8.96466 7.07057 9 6.8998 9C6.72904 9 6.56091 8.96466 6.41035 8.89711C6.25979 8.82957 6.13144 8.73191 6.03671 8.6128L0.156851 1.21876C0.0887356 1.13311 0.0414126 1.03704 0.0175822 0.936052C-0.00624817 0.835063 -0.00612023 0.731128 0.0179621 0.630181C0.0420445 0.529234 0.0896083 0.433253 0.157937 0.347716C0.226266 0.26218 0.314022 0.188763 0.416195 0.131659C0.518368 0.0745552 0.632957 0.0348813 0.753419 0.0149032C0.873881 -0.00507496 0.997857 -0.00496605 1.11827 0.0152233C1.23868 0.0354127 1.35317 0.0752872 1.4552 0.13257C1.55723 0.189854 1.6448 0.263424 1.71292 0.34908Z" fill="white"/>
</svg>
