<svg width="20" height="20" viewBox="0 0 20 20" fill="none" xmlns="http://www.w3.org/2000/svg">
<path d="M16.9873 2H14.9888V1C14.9888 0.734784 14.8835 0.48043 14.6961 0.292893C14.5087 0.105357 14.2546 0 13.9895 0C13.7245 0 13.4704 0.105357 13.283 0.292893C13.0956 0.48043 12.9903 0.734784 12.9903 1V2H6.99477V1C6.99477 0.734784 6.88949 0.48043 6.7021 0.292893C6.5147 0.105357 6.26054 0 5.99552 0C5.7305 0 5.47634 0.105357 5.28894 0.292893C5.10154 0.48043 4.99627 0.734784 4.99627 1V2H2.99776C2.2027 2 1.44021 2.31607 0.878024 2.87868C0.315835 3.44129 0 4.20435 0 5V17C0 17.7956 0.315835 18.5587 0.878024 19.1213C1.44021 19.6839 2.2027 20 2.99776 20H16.9873C17.7824 20 18.5449 19.6839 19.107 19.1213C19.6692 18.5587 19.9851 17.7956 19.9851 17V5C19.9851 4.20435 19.6692 3.44129 19.107 2.87868C18.5449 2.31607 17.7824 2 16.9873 2ZM17.9866 17C17.9866 17.2652 17.8813 17.5196 17.6939 17.7071C17.5065 17.8946 17.2523 18 16.9873 18H2.99776C2.73274 18 2.47858 17.8946 2.29118 17.7071C2.10378 17.5196 1.99851 17.2652 1.99851 17V10H17.9866V17ZM17.9866 8H1.99851V5C1.99851 4.73478 2.10378 4.48043 2.29118 4.29289C2.47858 4.10536 2.73274 4 2.99776 4H4.99627V5C4.99627 5.26522 5.10154 5.51957 5.28894 5.70711C5.47634 5.89464 5.7305 6 5.99552 6C6.26054 6 6.5147 5.89464 6.7021 5.70711C6.88949 5.51957 6.99477 5.26522 6.99477 5V4H12.9903V5C12.9903 5.26522 13.0956 5.51957 13.283 5.70711C13.4704 5.89464 13.7245 6 13.9895 6C14.2546 6 14.5087 5.89464 14.6961 5.70711C14.8835 5.51957 14.9888 5.26522 14.9888 5V4H16.9873C17.2523 4 17.5065 4.10536 17.6939 4.29289C17.8813 4.48043 17.9866 4.73478 17.9866 5V8Z" fill="#23BD7B"/>
</svg>
