<svg width="12" height="10" viewBox="0 0 12 10" fill="none" xmlns="http://www.w3.org/2000/svg">
<path d="M1.82506 7.682C1.08203 7.08768 1.08203 6.638 1.08203 4.72409C1.08203 2.81018 1.08203 1.85297 1.82506 1.25865C2.56911 0.663818 3.76486 0.663818 6.15737 0.663818C8.54989 0.663818 9.74615 0.663818 10.4892 1.25865C11.2327 1.85297 11.2327 2.81018 11.2327 4.72409C11.2327 6.638 11.2327 7.08768 10.4892 7.682C9.74666 8.27683 8.54989 8.27683 6.15737 8.27683C5.26236 8.27683 4.67298 8.71224 4.01433 9.19338C3.62349 9.47889 3.11217 9.19616 3.11217 8.71213V8.71213C3.11217 8.40016 2.88103 8.14385 2.58129 8.05733C2.28184 7.97091 2.03541 7.85041 1.82506 7.682Z" stroke="white" stroke-width="0.780822" stroke-linecap="round" stroke-linejoin="round"/>
</svg>
