<svg width="11" height="12" viewBox="0 0 11 12" fill="none" xmlns="http://www.w3.org/2000/svg">
<path d="M5.09459 0.798334C5.09477 0.798334 5.09489 0.798147 5.09481 0.797985L4.91875 0.433442L5.09437 0.798197C5.09441 0.798281 5.0945 0.798334 5.09459 0.798334ZM0.405436 5.17812L0.80925 5.14353C0.799944 5.03969 0.750995 4.94343 0.67257 4.87473C0.594146 4.80604 0.492275 4.7702 0.388115 4.77465C0.283956 4.77911 0.185515 4.82351 0.11324 4.89865C0.0409646 4.97378 0.000410097 5.07387 0 5.17812H0.405436ZM9.72289 6.1636L9.34124 8.36917L10.1408 8.50756L10.5219 6.30199L9.72289 6.1636ZM5.94369 11.1332H3.43053V11.944H5.94369V11.1332ZM2.93806 10.6807L2.49911 5.60302L1.69094 5.67276L2.13043 10.7504L2.93806 10.6807ZM9.34124 8.36917C9.06717 9.95308 7.63895 11.1332 5.94369 11.1332V11.944C8.01195 11.944 9.79587 10.5012 10.1408 8.50756L9.34124 8.36917ZM5.9491 2.40278L5.59069 4.58943L6.39075 4.72025L6.74916 2.53414L5.9491 2.40278ZM2.66939 5.18461L3.44729 4.51429L2.91752 3.90019L2.7542 4.04112C2.41526 4.33359 2.37731 4.84534 2.66939 5.18461ZM4.86199 2.33359L5.1193 1.34216L4.33438 1.1389L4.07706 2.12979L4.86199 2.33359ZM5.50744 1.14755L5.58583 1.17296L5.83395 0.401007L5.75557 0.3756L5.50744 1.14755ZM4.47277 3.33042C4.47252 3.33042 4.47237 3.33016 4.47248 3.32994C4.64122 3.01438 4.77197 2.67993 4.86199 2.33359L4.07706 2.12979C4.00316 2.41448 3.89573 2.68939 3.75704 2.94877L4.47277 3.33042ZM5.58583 1.17296C5.66296 1.19633 5.73293 1.23882 5.78926 1.29647C5.88257 1.39196 6.01159 1.47589 6.14084 1.44242L6.69293 1.29945C6.63708 1.08944 6.52904 0.896953 6.37887 0.739878C6.22869 0.582802 6.04125 0.466235 5.83395 0.401007L5.58583 1.17296ZM5.1193 1.34216C5.13008 1.30322 5.1492 1.2671 5.17534 1.23629C5.20147 1.20549 5.234 1.18074 5.27067 1.16377L4.91875 0.433442C4.63116 0.571831 4.41493 0.828066 4.33438 1.1389L5.1193 1.34216ZM5.27067 1.16377C5.34465 1.12843 5.42933 1.12263 5.50744 1.14755L5.75557 0.3756C5.4795 0.287117 5.18002 0.307818 4.91875 0.433442L5.26989 1.16328C5.27003 1.16358 5.27034 1.16377 5.27067 1.16377ZM6.43508 5.58356H9.23529V4.77269H6.43508V5.58356ZM1.33469 11.2175L0.80925 5.14353C0.363207 5.18204 0.0328373 5.57485 0.0713441 6.02089L0.525985 11.2872L1.33469 11.2175ZM0.810872 11.2753V5.989C0.810872 5.54116 0.447832 5.17812 0 5.17812V11.2753H0.810872ZM0.525985 11.2872C0.524336 11.2676 0.527331 11.2478 0.533734 11.2292C0.540137 11.2105 0.550347 11.1934 0.563717 11.1789C0.577087 11.1644 0.593325 11.1529 0.611398 11.145C0.629471 11.1371 0.648984 11.1331 0.668699 11.1332V11.944C1.06116 11.944 1.36821 11.6078 1.33469 11.2175L0.527287 11.2877C0.526805 11.2877 0.526328 11.2876 0.525985 11.2872ZM6.74916 2.53414C6.81658 2.12315 6.79743 1.70261 6.69293 1.29945L5.90801 1.50325C5.9842 1.79696 5.99819 2.10335 5.9491 2.40278L6.74916 2.53414ZM3.43053 11.1332C3.30674 11.133 3.18752 11.0864 3.09637 11.0026C3.00521 10.9189 2.94873 10.804 2.93806 10.6807L2.13043 10.7504C2.15856 11.076 2.30768 11.3791 2.54836 11.6001C2.78904 11.821 3.1038 11.9438 3.43053 11.944V11.1332ZM3.44729 4.51429C3.81488 4.19751 4.21059 3.82072 4.47277 3.33042L3.75704 2.94877C3.57 3.2996 3.27214 3.5953 2.91752 3.90019L3.44729 4.51429ZM10.5219 6.30199C10.5544 6.1144 10.5456 5.92197 10.4959 5.73816C10.4463 5.55436 10.357 5.38363 10.2345 5.23794C10.1119 5.09225 9.95896 4.97512 9.78636 4.89475C9.61376 4.81438 9.42568 4.77272 9.23529 4.77269V5.58356C9.5418 5.58356 9.77587 5.86034 9.72289 6.1636L10.5219 6.30199ZM0.668699 11.1332C0.747624 11.1332 0.810872 11.197 0.810872 11.2753H0C0 11.644 0.298941 11.944 0.668699 11.944V11.1332ZM5.59069 4.58943C5.57054 4.71192 5.57727 4.83732 5.61043 4.95694C5.64359 5.07656 5.70237 5.18754 5.78271 5.28217C5.86304 5.3768 5.963 5.45282 6.07565 5.50496C6.1883 5.55709 6.31095 5.58356 6.43508 5.58356V4.77269C6.42848 4.77272 6.42196 4.77183 6.41598 4.76905C6.41 4.76627 6.4047 4.76221 6.40047 4.75715C6.39624 4.75209 6.39317 4.74617 6.39149 4.73979C6.38981 4.73341 6.38956 4.72674 6.39075 4.72025L5.59069 4.58943ZM2.49911 5.60302C2.49242 5.52473 2.50389 5.44598 2.53358 5.37324C2.56328 5.3005 2.60983 5.23585 2.66939 5.18461L2.13962 4.56997C1.98286 4.70513 1.86044 4.87559 1.78244 5.06731C1.70443 5.25904 1.67307 5.46654 1.69094 5.67276L2.49857 5.60253C2.49886 5.6025 2.49911 5.60273 2.49911 5.60302Z" fill="white"/>
</svg>
